<svg width="100" height="94" viewBox="0 0 100 94" fill="none" xmlns="http://www.w3.org/2000/svg">
  <path d="M54.1667 43.8191C54.2577 42.5468 53.9505 41.7834 52.3578 41.3806C49.9005 40.7444 48.0802 39.0693 47.1701 36.8641C46.0325 34.1181 44.8265 31.3191 44.3487 28.446C43.8482 25.4986 45.4523 23.9082 48.5012 23.0919C49.2065 22.901 49.8663 22.5088 50.5831 22.3497C51.0495 22.2437 51.607 22.3391 52.0734 22.4876C52.244 22.5406 52.4261 23.1767 52.3237 23.2721C51.971 23.5796 51.5046 23.9506 51.0495 23.9825C46.3624 24.3429 44.8607 26.2195 45.9301 30.5028C46.7606 33.8318 48.1599 36.8004 51.4477 38.7724C53.6206 40.0765 55.7366 40.2991 57.9209 39.0587C62.1985 36.6308 63.9846 32.8883 64.2121 28.4142C64.3487 25.7318 62.3123 23.9613 59.434 23.8764C58.7969 23.8552 58.1485 23.5372 57.5455 23.2827C57.4886 23.2615 57.6593 22.477 57.7389 22.477C58.4101 22.4558 59.0927 22.5088 59.7525 22.6042C60.1507 22.6678 60.5148 22.8798 60.9016 22.9859C64.6445 24.0461 66.0779 25.594 65.4977 29.1563C64.8037 33.4926 63.3589 37.6486 59.343 40.5006C59.1268 40.649 58.8879 40.8398 58.6376 40.8823C55.5319 41.3594 55.6001 43.4162 55.7139 45.6638C55.9414 50.3712 54.5649 54.3788 49.9915 57.1035C48.1485 58.2061 46.26 58.3122 44.6104 57.4534C40.7993 55.4602 38.8084 52.2372 38.4557 48.1659C38.4102 47.5934 38.3874 47.0209 38.4329 46.4484C38.6263 44.0629 38.4784 41.9213 35.987 40.3203C34.5422 39.3874 33.8141 37.744 34.2464 35.9099C34.6559 34.1393 36.2031 33.3229 38.0689 33.7788C38.8084 33.9591 39.6616 33.7258 40.4352 33.8318C41.5046 33.9803 43.1201 33.9803 43.4955 34.574C44.1098 35.5918 44.3715 37.1609 43.9733 38.2529C43.541 39.4722 42.1417 40.3734 41.2998 41.5078C40.731 42.2818 40.0598 43.1829 40.0029 44.0523C39.8323 46.9679 39.855 49.8835 41.4819 52.5658C44.2577 57.1671 49.434 57.4958 52.2668 52.9475" fill="#2E5F93"/>
  <path d="M27.9552 60.7506C13.8597 52.6082 7.22714 34.1498 15.4637 18.3209C23.871 2.1738 42.938 -3.26508 56.6809 1.86635C53.4044 2.71452 50.0711 3.42486 46.8516 4.44266C36.7037 7.6339 29.4455 14.1224 24.7925 22.8374C19.5024 32.7504 18.6492 43.1298 23.6093 53.4881C24.8152 56.0114 26.4876 58.3333 27.9552 60.7506Z" fill="#42405D"/>
  <path d="M0.00302803 15.1613C0.116793 11.3657 3.22258 8.52437 7.17024 8.59859C11.1748 8.6728 14.2123 11.758 14.0758 15.6278C13.962 19.2113 10.7083 22.1905 6.97684 22.1269C2.99505 22.0633 -0.110737 18.9569 0.00302803 15.1507V15.1613Z" fill="#42405D"/>
  <path d="M81.1518 46.3423C78.8765 67.5466 64.9402 78.7848 46.0552 78.9863C26.7947 79.1877 15.1679 66.4863 12.8926 51.6434C15.1679 54.824 16.3056 56.7748 18.7174 59.0118C26.3056 66.0517 35.7822 69.2005 46.2372 69.2005C58.1143 69.2005 67.7275 65.7124 75.4749 56.9444C78.1597 54.2197 80.0255 49.5229 81.1631 46.3423H81.1518Z" fill="#22C7B8"/>
  <path d="M53.3362 93.2886C49.6388 94.8895 45.5319 93.5643 43.8368 90.2352C42.1189 86.8637 43.7344 82.9515 47.5 81.3294C50.9926 79.8239 55.3043 81.2128 56.9198 84.351C58.6376 87.6907 57.0335 91.6771 53.3362 93.278V93.2886Z" fill="#22C7B8"/>
  <path d="M41.334 9.23505C56.2145 2.40727 76.7946 4.93058 86.8401 19.8372C97.0903 35.0406 91.8344 54.0609 79.8776 62.2033C80.8446 59.1711 81.9595 56.1601 82.7445 53.0749C85.2246 43.3633 83.1541 34.1925 77.6934 25.891C71.4818 16.4551 61.8117 10.3059 50.4238 8.71554C45.896 8.18543 44.7583 9.24564 41.3454 9.24564L41.334 9.23505Z" fill="#5688C7"/>
  <path d="M96.6693 9.2986C100.06 11.3978 101.004 15.3524 98.8422 18.4376C96.6579 21.5653 92.2325 22.3286 88.7854 20.1764C85.5886 18.1832 84.5988 14.0377 86.6352 11.1116C88.7968 8.00513 93.2791 7.18877 96.6807 9.2986H96.6693Z" fill="#5688C7"/>
</svg>
