<svg width="42" height="26" viewBox="0 0 42 26" fill="none" xmlns="http://www.w3.org/2000/svg">
  <path d="M22 7.75H2C0.9 7.75 0 8.59375 0 9.625C0 10.6562 0.9 11.5 2 11.5H22C23.1 11.5 24 10.6562 24 9.625C24 8.59375 23.1 7.75 22 7.75ZM22 0.25H2C0.9 0.25 0 1.09375 0 2.125C0 3.15625 0.9 4 2 4H22C23.1 4 24 3.15625 24 2.125C24 1.09375 23.1 0.25 22 0.25ZM2 19H14C15.1 19 16 18.1562 16 17.125C16 16.0938 15.1 15.25 14 15.25H2C0.9 15.25 0 16.0938 0 17.125C0 18.1562 0.9 19 2 19ZM40.42 11.8938L40.6 12.0625C41.38 12.7938 41.38 13.975 40.6 14.7063L29.44 25.1875C28.66 25.9187 27.4 25.9187 26.62 25.1875L20.44 19.3937C19.66 18.6625 19.66 17.4813 20.44 16.75L20.62 16.5812C21.4 15.85 22.66 15.85 23.44 16.5812L28.04 20.8938L37.6 11.9125C38.36 11.1625 39.64 11.1625 40.42 11.8938Z" fill="white"/>
</svg>
